:SAMPLES-PER-SECOND 30
:FULLY-SPECIFIED
:DEGREES
386
root  27.2636 38.1853 -26.2403 -2.24724 -65.1064 -1.01381
RightUpLeg  -24.7368 -29.7958 8.04633
RightLeg  26.0736 -6.65438 -3.02376
RightFoot  -5.19358 0.581709 -11.3963
RightToes  0.00048216 0.542163 -0.142577
Spine  34.2005 0.590112 13.2393
Spine1  12.8056 8.87452 -11.223
HEad  -19.9531 -15.4646 13.5906
LeftShoulder1  10.2276 -16.4024 -44.7576
LeftArm  -27.3373 5.73666 -22.3831
LeftForeArm  6.21652 -69.4599 -32.2748
LeftHand  -0.25398 0.0180481 5.50724
RightShoulder  4.6391 12.204 23.3226
RightArm  38.2114 55.1483 74.4738
RightForeArm  -33.5065 30.6631 8.26063
RightHand  0.0591614 -6.98004 -7.37676
LeftUpLeg  -13.4181 -8.61849 12.5613
LeftLeg  58.1618 3.92252 7.2186
LeftFoot  16.1166 0.446609 -2.01977
LeftToes  1.06244e-005 4.65854e-005 -8.18505e-006
387
root  25.5958 38.3294 -26.4118 -1.27281 -66.7144 -2.5027
RightUpLeg  -21.3878 -28.7575 8.27712
RightLeg  26.7737 -6.54324 -2.43684
RightFoot  -7.98668 0.26264 -10.7817
RightToes  0.00048216 0.542163 -0.142577
Spine  34.2983 1.26663 13.9105
Spine1  13.2357 9.86218 -11.0991
HEad  -19.1025 -15.4766 13.9326
LeftShoulder1  10.2707 -16.4777 -44.7773
LeftArm  -27.4741 5.02379 -22.5207
LeftForeArm  5.28285 -68.9455 -31.3293
LeftHand  -0.25398 0.0180481 5.50724
RightShoulder  4.55916 12.102 22.9867
RightArm  39.0082 55.6324 75.0381
RightForeArm  -34.3454 29.9007 8.08672
RightHand  0.0410888 -6.56289 -7.878
LeftUpLeg  -18.0191 -12.0241 11.7478
LeftLeg  63.4637 1.01525 2.92647
LeftFoot  15.3746 0.129484 -0.983166
LeftToes  1.06244e-005 4.65854e-005 -8.18505e-006
388
root  23.8056 38.6202 -26.5962 -1.40532 -69.1107 -2.05156
RightUpLeg  -17.797 -26.253 7.66705
RightLeg  25.9878 -7.04939 -1.39976
RightFoot  -10.175 0.0369326 -10.2994
RightToes  0.00048216 0.542163 -0.142577
Spine  33.9481 2.5811 13.3999
Spine1  12.9167 11.104 -11.8297
HEad  -17.6924 -15.5214 13.8163
LeftShoulder1  10.226 -16.3738 -44.8177
LeftArm  -27.1598 4.72713 -22.1947
LeftForeArm  4.60279 -68.5768 -30.69
LeftHand  -0.25398 0.0180481 5.50724
RightShoulder  4.61991 12.1564 23.2881
RightArm  38.8382 55.4416 75.5393
RightForeArm  -33.8952 28.916 7.81346
RightHand  0.0337674 -6.50449 -7.58316
LeftUpLeg  -21.9924 -13.1224 10.4651
LeftLeg  64.5726 0.188858 1.123
LeftFoot  11.2466 0.572316 -3.20935
LeftToes  1.06244e-005 4.65854e-005 -8.18505e-006
389
root  22.0038 38.8843 -26.7887 -2.18318 -70.8522 -0.89859
RightUpLeg  -13.7172 -23.241 6.6349
RightLeg  24.2638 -8.63911 -0.261044
RightFoot  -12.1964 -0.1556 -9.79612
RightToes  0.00048216 0.542163 -0.142577
Spine  33.504 3.55634 12.6552
Spine1  12.2355 11.8354 -12.8044
HEad  -16.6743 -15.3155 12.9089
LeftShoulder1  10.1541 -16.243 -44.7973
LeftArm  -26.9702 4.95335 -21.7441
LeftForeArm  4.42905 -68.4948 -30.5559
LeftHand  -0.25398 0.0180481 5.50724
RightShoulder  4.73811 12.3602 23.6739
RightArm  38.5295 55.1073 76.1806
RightForeArm  -32.8111 27.9937 7.53994
RightHand  0.0410264 -6.77822 -6.87907
LeftUpLeg  -25.5235 -13.3292 9.0111
LeftLeg  62.2226 1.43379 3.48798
LeftFoot  7.62298 0.529334 -3.39721
LeftToes  1.06244e-005 4.65854e-005 -8.18505e-006
390
root  20.2342 39.099 -26.9842 -3.49744 -71.5079 0.427582
RightUpLeg  -9.12681 -19.2454 5.44506
RightLeg  21.9352 -12.0757 0.852406
RightFoot  -13.5332 -0.273739 -9.49377
RightToes  0.00048216 0.542163 -0.142577
Spine  33.1369 4.02627 12.0286
Spine1  11.8538 11.9916 -13.4381
HEad  -16.156 -14.9394 11.4542
LeftShoulder1  10.1241 -16.1683 -44.8366
LeftArm  -26.9412 5.40834 -21.4061
LeftForeArm  4.5803 -68.6057 -30.7508
LeftHand  -0.25398 0.0180481 5.50724
RightShoulder  4.80585 12.5355 23.7739
RightArm  38.9642 55.0242 76.787
RightForeArm  -32.3666 27.296 7.34936
RightHand  0.0482903 -7.0327 -6.45969
LeftUpLeg  -27.7899 -12.7696 7.15165
LeftLeg  56.4078 4.04691 6.98302
LeftFoot  4.8231 0.212443 -1.721
LeftToes  1.06244e-005 4.65854e-005 -8.18505e-006
391
root  18.4764 39.2652 -27.1602 -4.68213 -71.8534 1.58136
RightUpLeg  -4.96688 -14.8756 4.93702
RightLeg  19.6641 -16.0879 1.71086
RightFoot  -14.511 -0.363342 -9.56203
RightToes  0.00048216 0.542163 -0.142577
Spine  32.53 4.41661 11.6951
Spine1  11.748 12.1325 -13.9163
HEad  -15.7254 -14.704 10.1241
LeftShoulder1  10.1034 -16.0728 -44.969
LeftArm  -26.7597 5.76042 -21.1641
LeftForeArm  4.83897 -68.7728 -31.0449
LeftHand  -0.25398 0.0180481 5.50724
RightShoulder  4.82101 12.571 23.8031
RightArm  39.712 54.9861 76.9
RightForeArm  -32.5691 27.0105 7.28588
RightHand  0.051486 -7.14241 -6.32763
LeftUpLeg  -28.2229 -10.4047 4.81539
LeftLeg  46.5939 5.85675 7.08226
LeftFoot  2.20839 0.250107 -2.25
LeftToes  1.06244e-005 4.65854e-005 -8.18505e-006
